
Complete name                    : Wrong.Side.Of.Town.2010.avi

Format                           : AVI
File size                        : 1.37 GiB
Duration                         : 1h 21mn
Overall bit rate                 : 2 391 Kbps

Video

Format                           : MPEG-4 Visual
Codec ID/Hint                    : XviD
Duration                         : 1h 21mn
Bit rate                         : 1 932 Kbps
Width                            : 720 pixels
Height                           : 554 pixels
Display aspect ratio             : 16:9
Stream size                      : 1.11 GiB (81%)
Writing library                  : XviD 1.1.2 (UTC 2006-11-01)

Audio

Format                           : AC-3
Duration                         : 1h 21mn
Bit rate                         : 448 Kbps
Channel(s)                       : 6 channels
Channel positions                : Front: L C R, Side: L R, LFE
Sampling rate                    : 48.0 KHz
Bit depth                        : 16 bits
Stream size                      : 263 MiB (19%)


Text #1
Language                         : Swedish

Text #2
Language                         : Norwegian

Text #3
Language                         : Finnish